<?xml version="1.0" standalone="no"?>
<!DOCTYPE svg PUBLIC "-//W3C//DTD SVG 20010904//EN"
 "http://www.w3.org/TR/2001/REC-SVG-20010904/DTD/svg10.dtd">
<svg version="1.0" xmlns="http://www.w3.org/2000/svg"
 width="180.000000pt" height="91.000000pt" viewBox="0 0 180.000000 91.000000"
 preserveAspectRatio="xMidYMid meet">
<metadata>
Created by potrace 1.15, written by Peter Selinger 2001-2017
</metadata>
<g transform="translate(0.000000,91.000000) scale(0.100000,-0.100000)"
fill="#000000" stroke="none">
<path d="M0 140 c0 -118 2 -140 15 -140 13 0 15 21 15 126 l0 126 56 -4 c40
-3 61 -10 70 -23 33 -45 -1 -95 -66 -95 -60 0 -51 -22 35 -80 l74 -50 116 0
c96 0 115 3 115 15 0 12 -16 15 -85 15 l-85 0 0 35 0 35 80 0 c64 0 80 3 80
15 0 12 -16 15 -80 15 l-80 0 0 60 0 60 85 0 c69 0 85 3 85 15 0 12 -18 15
-100 15 l-100 0 0 -125 c0 -69 -2 -125 -5 -125 -3 0 -29 16 -58 35 -28 19 -45
35 -36 35 9 0 28 9 43 21 36 29 37 99 1 134 -21 22 -33 25 -100 25 l-75 0 0
-140z"/>
<path d="M450 140 c0 -116 2 -140 15 -140 11 0 15 21 17 105 l3 105 83 -105
c46 -58 90 -105 98 -105 11 0 14 26 14 140 0 116 -2 140 -15 140 -11 0 -15
-21 -17 -107 l-3 -106 -83 106 c-46 59 -90 107 -98 107 -11 0 -14 -26 -14
-140z"/>
<path d="M710 169 c0 -109 0 -111 29 -140 43 -43 129 -43 172 0 29 29 29 31
29 140 0 92 -3 111 -15 111 -12 0 -15 -18 -15 -97 -1 -102 -7 -120 -47 -141
-35 -19 -72 -14 -98 13 -23 22 -25 31 -25 125 0 82 -3 100 -15 100 -12 0 -15
-19 -15 -111z"/>
<path d="M1040 140 c0 -118 2 -140 15 -140 12 0 15 18 15 106 l0 107 35 -47
c20 -25 41 -46 48 -46 7 0 26 19 42 43 l30 42 3 -102 c2 -95 4 -103 22 -103
19 0 20 7 20 140 0 127 -2 140 -17 140 -10 0 -36 -25 -57 -55 -21 -30 -42 -52
-46 -50 -4 3 -25 27 -46 55 -59 78 -64 71 -64 -90z"/>
<path d="M1300 140 l0 -140 100 0 c82 0 100 3 100 15 0 12 -16 15 -85 15 l-85
0 0 35 0 35 80 0 c64 0 80 3 80 15 0 12 -16 15 -80 15 l-80 0 0 60 0 60 85 0
c69 0 85 3 85 15 0 12 -18 15 -100 15 l-100 0 0 -140z"/>
<path d="M1520 140 l0 -140 75 0 c69 0 77 2 110 31 80 70 64 188 -32 238 -12
6 -51 11 -87 11 l-66 0 0 -140z m134 96 c71 -29 89 -110 38 -167 -24 -27 -37
-33 -85 -37 l-57 -4 0 111 0 111 35 0 c20 0 51 -6 69 -14z"/>
</g>
</svg>
